<svg width="32" height="32" xmlns="http://www.w3.org/2000/svg">

 <title/>
 <g>
  <title>Layer 1</title>
  <g id="Layer_2" data-name="Layer 2">
   <path id="svg_1" d="m23.52,29l-15,0a5.48,5.48 0 0 1 -5.31,-6.83l3.04,-12.41a1,1 0 0 1 1,-0.76l16.75,0a1,1 0 0 1 1,0.7l3.78,12.16a5.49,5.49 0 0 1 -0.83,4.91a5.41,5.41 0 0 1 -4.43,2.23zm-15.52,-18l-2.89,11.65a3.5,3.5 0 0 0 3.37,4.35l15,0a3.44,3.44 0 0 0 2.79,-1.42a3.5,3.5 0 0 0 0.53,-3.13l-3.52,-11.45l-15.28,0z"/>
   <path id="svg_2" d="m20,17a1,1 0 0 1 -1,-1l0,-8a3,3 0 0 0 -6,0l0,8a1,1 0 0 1 -2,0l0,-8a5,5 0 0 1 10,0l0,8a1,1 0 0 1 -1,1z"/>
  </g>
  <g id="frame">
   <rect id="svg_3" fill="none" width="32" height="32" class="cls-1"/>
  </g>
 </g>
</svg>