<svg width="35" height="35" viewBox="0 0 35 35" fill="none" xmlns="http://www.w3.org/2000/svg">
<g clip-path="url(#clip0)">
<path d="M20.6004 6.84164L20.7433 5.82873C20.806 5.52355 21.0809 4.68812 21.6263 4.48034C22.5353 4.13188 26.271 3.00426 26.31 2.99343L26.0091 2C25.8533 2.04762 22.1977 3.14927 21.254 3.51288C20.081 3.9609 19.7585 5.46295 19.726 5.65774L19.5767 6.662C15.3605 6.06897 9.68994 6.93038 9.68994 9.24839C9.68994 9.27004 9.69643 9.29168 9.6986 9.31332V9.3328L9.71158 9.41072L9.74621 9.6185L10.0839 11.6184L10.1466 11.9949L12.8001 27.7189C12.8001 27.8899 12.8282 28.0869 12.904 28.2903C12.0642 28.6453 11.5102 29.1496 11.5102 29.8162C11.5102 31.3182 14.2935 32.0022 16.8799 32.0022C19.4685 32.0022 22.2496 31.3182 22.2496 29.8162C22.2496 29.1517 21.7021 28.6496 20.8688 28.2946C20.9271 28.1382 20.9565 27.9724 20.9554 27.8055L23.6175 11.9928L23.6781 11.6227L24.0179 9.6185L24.0547 9.41288L24.0677 9.3328C24.0677 9.32631 24.0634 9.31982 24.0677 9.31332C24.0677 9.29168 24.0763 9.27004 24.0763 9.24839C24.0699 8.06883 22.6003 7.26802 20.6004 6.84164V6.84164ZM10.7267 9.24839C10.7267 9.08607 10.863 8.90859 11.0903 8.73112C11.8803 8.10778 13.9624 7.47579 16.8821 7.47579C17.8322 7.47579 18.6806 7.54722 19.4382 7.65976L18.975 10.902C18.2803 10.9829 17.5814 11.0226 16.8821 11.021C15.5824 11.034 14.2862 10.8857 13.023 10.5795C12.5478 10.4656 12.0846 10.3062 11.64 10.1033C11.445 10.0111 11.2607 9.89792 11.0903 9.76567C10.863 9.5882 10.7267 9.41072 10.7267 9.24839V9.24839ZM11.1162 11.5188L11.0188 10.9452C11.1595 11.021 11.3089 11.0924 11.4669 11.1595C12.8521 11.7525 14.8736 12.0577 16.8799 12.0577C17.5335 12.0577 18.1872 12.0209 18.8213 11.9582L18.6698 13.0555C18.0755 13.1105 17.4789 13.1387 16.8821 13.1399C13.7979 13.1399 11.6855 12.4733 11.1812 11.9019L11.1162 11.5188V11.5188ZM21.2151 29.8205C21.2151 30.1516 19.6979 30.9654 16.8821 30.9654C14.0662 30.9654 12.549 30.1516 12.549 29.8205C12.549 29.656 12.9191 29.3768 13.6204 29.1366C14.2134 29.5261 15.209 29.8205 16.8821 29.8205C18.5616 29.8205 19.5594 29.5218 20.1524 29.1409C20.845 29.379 21.2151 29.6538 21.2151 29.8205ZM19.923 27.7189C19.923 27.8055 19.897 27.8877 19.858 27.9657C19.6568 28.3401 18.988 28.6063 17.9967 28.7188C17.2568 28.8053 16.5094 28.8053 15.7696 28.7188C14.8173 28.6085 14.1658 28.3466 13.9321 27.957C13.87 27.8596 13.8342 27.7477 13.8282 27.6323L11.3825 13.0966C12.6854 13.7005 14.7891 14.0121 16.8821 14.0121C17.4405 14.0121 17.9967 13.9883 18.54 13.945L18.2218 16.1743C17.7769 16.1261 17.3296 16.1022 16.8821 16.1029C14.7675 16.1029 13.2589 16.5725 12.6854 17.0335C12.5828 17.1082 12.5033 17.2102 12.456 17.3279C12.4473 17.3474 12.4343 17.3669 12.4322 17.3863L12.4473 17.4859C12.4929 17.6123 12.5759 17.7218 12.6854 17.7997C12.8087 17.8969 12.9422 17.9804 13.0836 18.0486C13.3455 18.1785 13.6875 18.2975 14.0857 18.4014C14.8194 18.594 15.7609 18.7261 16.8821 18.7261C18.0032 18.7261 18.9425 18.5919 19.6784 18.4014C20.0766 18.2975 20.4186 18.1785 20.6783 18.0486C20.8407 17.9664 20.9727 17.8841 21.0787 17.7997C21.1883 17.7224 21.2708 17.6126 21.3146 17.4859L21.3298 17.3863C21.3276 17.3669 21.3146 17.3474 21.306 17.3257C21.2572 17.2101 21.1788 17.1093 21.0787 17.0335C20.7541 16.7717 20.1156 16.5098 19.2455 16.3301L19.6026 13.826C20.6827 13.6745 21.6566 13.4321 22.3795 13.0966L19.923 27.7189V27.7189ZM22.6457 11.521L22.583 11.8997C22.2583 12.272 21.2432 12.681 19.7347 12.9235L19.8905 11.8175C20.7149 11.6925 21.5219 11.4717 22.2951 11.1595C22.4509 11.0924 22.6024 11.021 22.7453 10.9452L22.6457 11.521V11.521ZM22.6717 9.76567C22.5013 9.89792 22.317 10.0111 22.1219 10.1033C21.7627 10.2765 21.2887 10.4388 20.7389 10.5795C20.5225 10.6357 20.2866 10.6855 20.0442 10.731L20.4554 7.84373C21.4964 8.08181 22.2605 8.40646 22.6695 8.72895C22.8968 8.90859 23.0331 9.08607 23.0331 9.24623C23.0353 9.41072 22.8989 9.5882 22.6717 9.76567Z" fill="white"/>
<path d="M21.0788 18.159C20.9728 18.2348 20.8407 18.3127 20.6784 18.3841C20.3549 18.5244 20.0186 18.6331 19.6741 18.7088C18.7591 18.922 17.8217 19.0244 16.8821 19.014C15.7632 19.014 14.8195 18.8906 14.0858 18.7131C13.7426 18.6355 13.4072 18.5268 13.0837 18.3885C12.9433 18.3262 12.8098 18.2493 12.6855 18.159C12.578 18.0893 12.4948 17.988 12.4474 17.869L14.0836 27.5913C14.0906 27.6335 14.0942 27.6762 14.0945 27.719C14.0945 28.0285 14.852 28.5219 16.88 28.5219C18.908 28.5219 19.6655 28.0306 19.6655 27.719C19.6655 27.6757 19.6698 27.6324 19.6741 27.5891L21.3126 17.869C21.267 17.9878 21.1852 18.0893 21.0788 18.159V18.159Z" fill="white"/>
</g>
<defs>
<clipPath id="clip0">
<rect width="30" height="30" fill="white" transform="translate(3 2)"/>
</clipPath>
</defs>
</svg>
